<svg width="512" height="512" viewBox="0 0 512 512" fill="none" xmlns="http://www.w3.org/2000/svg">
<rect width="512" height="512" rx="256" fill="#000E22"/>
<path d="M189.364 158.916C182.212 158.916 176.061 157.401 170.909 154.371C165.788 151.31 161.848 147.068 159.091 141.644C156.364 136.219 155 129.977 155 122.916C155 115.765 156.379 109.492 159.136 104.098C161.924 98.6739 165.879 94.4466 171 91.4163C176.121 88.3557 182.212 86.8254 189.273 86.8254C195.364 86.8254 200.697 87.9315 205.273 90.1436C209.848 92.3557 213.47 95.4618 216.136 99.4618C218.803 103.462 220.273 108.159 220.545 113.553H202.273C201.758 110.068 200.394 107.265 198.182 105.144C196 102.992 193.136 101.916 189.591 101.916C186.591 101.916 183.97 102.735 181.727 104.371C179.515 105.977 177.788 108.325 176.545 111.416C175.303 114.507 174.682 118.25 174.682 122.644C174.682 127.098 175.288 130.886 176.5 134.007C177.742 137.128 179.485 139.507 181.727 141.144C183.97 142.78 186.591 143.598 189.591 143.598C191.803 143.598 193.788 143.144 195.545 142.235C197.333 141.325 198.803 140.007 199.955 138.28C201.136 136.522 201.909 134.416 202.273 131.962H220.545C220.242 137.295 218.788 141.992 216.182 146.053C213.606 150.083 210.045 153.235 205.5 155.507C200.955 157.78 195.576 158.916 189.364 158.916Z" fill="#50A2FF"/>
<path d="M258.67 158.689C253.367 158.689 248.564 157.325 244.261 154.598C239.989 151.841 236.595 147.795 234.08 142.462C231.595 137.098 230.352 130.522 230.352 122.735C230.352 114.735 231.64 108.083 234.216 102.78C236.792 97.4466 240.216 93.4618 244.489 90.8254C248.792 88.1588 253.504 86.8254 258.625 86.8254C262.534 86.8254 265.792 87.4921 268.398 88.8254C271.034 90.1285 273.155 91.7648 274.761 93.7345C276.398 95.6739 277.64 97.583 278.489 99.4618H279.08V64.4618H298.398V157.553H279.307V146.371H278.489C277.58 148.31 276.292 150.235 274.625 152.144C272.989 154.022 270.852 155.583 268.216 156.825C265.61 158.068 262.428 158.689 258.67 158.689ZM264.807 143.28C267.928 143.28 270.564 142.431 272.716 140.735C274.898 139.007 276.564 136.598 277.716 133.507C278.898 130.416 279.489 126.795 279.489 122.644C279.489 118.492 278.913 114.886 277.761 111.825C276.61 108.765 274.943 106.401 272.761 104.735C270.58 103.068 267.928 102.235 264.807 102.235C261.625 102.235 258.943 103.098 256.761 104.825C254.58 106.553 252.928 108.947 251.807 112.007C250.686 115.068 250.125 118.613 250.125 122.644C250.125 126.704 250.686 130.295 251.807 133.416C252.958 136.507 254.61 138.931 256.761 140.689C258.943 142.416 261.625 143.28 264.807 143.28Z" fill="#50A2FF"/>
<path d="M314.318 157.553V87.7345H333.091V99.9163H333.818C335.091 95.583 337.227 92.3103 340.227 90.0982C343.227 87.8557 346.682 86.7345 350.591 86.7345C351.561 86.7345 352.606 86.7951 353.727 86.9163C354.848 87.0376 355.833 87.2042 356.682 87.4163V104.598C355.773 104.325 354.515 104.083 352.909 103.871C351.303 103.659 349.833 103.553 348.5 103.553C345.652 103.553 343.106 104.174 340.864 105.416C338.652 106.628 336.894 108.325 335.591 110.507C334.318 112.689 333.682 115.204 333.682 118.053V157.553H314.318Z" fill="#50A2FF"/>
<path d="M311.909 229.371H197.091V215.598H311.909V229.371Z" fill="white"/>
<path d="M248.057 297.084L226.92 249.084H240.727L253.92 281.948L253.205 281.504H254.909L254.193 281.948L267.386 249.084H281.193L260.057 297.084H248.057Z" fill="white"/>
<path d="M209.955 376.735V391.28H167.909V376.735H209.955ZM177.455 360.007H196.818V425.098C196.818 426.886 197.091 428.28 197.636 429.28C198.182 430.25 198.939 430.932 199.909 431.325C200.909 431.719 202.061 431.916 203.364 431.916C204.273 431.916 205.182 431.841 206.091 431.689C207 431.507 207.697 431.371 208.182 431.28L211.227 445.689C210.258 445.992 208.894 446.341 207.136 446.735C205.379 447.159 203.242 447.416 200.727 447.507C196.061 447.689 191.97 447.068 188.455 445.644C184.97 444.219 182.258 442.007 180.318 439.007C178.379 436.007 177.424 432.219 177.455 427.644V360.007Z" fill="#FFE251"/>
<path d="M241.614 426.462L241.659 403.235H244.477L266.841 376.735H289.068L259.023 411.825H254.432L241.614 426.462ZM224.068 446.553V353.462H243.432V446.553H224.068ZM267.705 446.553L247.159 416.144L260.068 402.462L290.386 446.553H267.705Z" fill="#FFE251"/>
<path d="M298.568 446.553V376.735H317.341V388.916H318.068C319.341 384.583 321.477 381.31 324.477 379.098C327.477 376.856 330.932 375.735 334.841 375.735C335.811 375.735 336.856 375.795 337.977 375.916C339.098 376.038 340.083 376.204 340.932 376.416V393.598C340.023 393.325 338.765 393.083 337.159 392.871C335.553 392.659 334.083 392.553 332.75 392.553C329.902 392.553 327.356 393.174 325.114 394.416C322.902 395.628 321.144 397.325 319.841 399.507C318.568 401.689 317.932 404.204 317.932 407.053V446.553H298.568Z" fill="#FFE251"/>
</svg>
